<?xml version="1.0" standalone="no"?>
<!DOCTYPE svg PUBLIC "-//W3C//DTD SVG 20010904//EN"
 "http://www.w3.org/TR/2001/REC-SVG-20010904/DTD/svg10.dtd">
<svg version="1.0" xmlns="http://www.w3.org/2000/svg"
 width="260.000000pt" height="260.000000pt" viewBox="0 0 260.000000 260.000000"
 preserveAspectRatio="xMidYMid meet">
<metadata>
Created by potrace 1.11, written by Peter Selinger 2001-2013
</metadata>
<g transform="translate(0.000000,260.000000) scale(0.100000,-0.100000)"
fill="#000000" stroke="none">
<path d="M1165 2525 c-382 -60 -706 -280 -894 -607 -357 -621 -115 -1410 529
-1728 77 -39 205 -85 259 -95 14 -2 51 -9 81 -15 71 -15 268 -20 345 -10 113
15 140 21 242 55 172 57 295 127 432 245 96 83 114 146 57 199 -49 46 -101 38
-171 -25 -148 -135 -322 -222 -520 -261 -22 -4 -110 -8 -195 -8 -138 0 -166 3
-253 28 -454 126 -762 524 -765 990 0 126 12 206 49 322 53 166 123 280 253
411 171 172 355 263 601 299 48 7 253 8 264 1 4 -3 29 -8 56 -12 156 -21 364
-125 509 -255 58 -52 80 -62 122 -54 68 12 102 93 65 152 -26 42 -174 160
-268 214 -127 72 -298 132 -438 154 -78 12 -281 12 -360 0z"/>
<path d="M988 1746 c-73 -30 -108 -58 -152 -125 -71 -106 -100 -291 -70 -449
44 -231 173 -350 372 -340 227 11 354 192 347 496 -5 210 -80 349 -222 414
-83 37 -190 39 -275 4z m204 -177 c52 -37 79 -117 82 -243 5 -201 -52 -319
-154 -319 -52 0 -93 32 -119 93 -27 63 -33 100 -33 215 1 219 105 338 224 254z"/>
<path d="M1873 1761 c-177 -46 -272 -217 -202 -365 36 -77 72 -101 283 -193
123 -54 152 -81 141 -132 -20 -90 -200 -86 -339 8 l-29 19 -59 -70 -59 -70 33
-25 c216 -162 541 -131 640 62 11 22 23 67 26 101 4 52 0 71 -21 118 -33 72
-78 103 -254 178 -150 63 -175 82 -175 124 0 32 41 73 75 75 85 6 159 -10 210
-45 l35 -24 53 65 53 66 -29 24 c-17 14 -59 39 -94 56 -55 26 -77 31 -160 33
-53 2 -110 0 -128 -5z"/>
</g>
</svg>
